<?xml version="1.0" standalone="no"?>
<!DOCTYPE svg PUBLIC "-//W3C//DTD SVG 20010904//EN"
 "http://www.w3.org/TR/2001/REC-SVG-20010904/DTD/svg10.dtd">
<svg version="1.0" xmlns="http://www.w3.org/2000/svg"
 width="640.000000pt" height="640.000000pt" viewBox="0 0 640.000000 640.000000"
 preserveAspectRatio="xMidYMid meet">
<metadata>
Created by potrace 1.11, written by Peter Selinger 2001-2013
</metadata>
<g transform="translate(0.000000,640.000000) scale(0.100000,-0.100000)"
fill="#000000" stroke="none">
<path d="M3638 5924 c-2 -1 -26 -6 -53 -9 -28 -4 -53 -9 -56 -11 -3 -2 -21 -6
-40 -9 -48 -8 -152 -36 -164 -43 -5 -4 -14 -7 -20 -8 -5 -1 -21 -6 -35 -12
-14 -5 -29 -11 -35 -13 -25 -7 -196 -94 -250 -127 -106 -63 -239 -169 -351
-280 -115 -113 -159 -163 -229 -257 -17 -22 -33 -42 -36 -45 -6 -5 -113 -167
-135 -205 -18 -31 -119 -234 -142 -285 -53 -118 -153 -408 -166 -480 -2 -14
-13 -61 -24 -105 -10 -44 -20 -87 -20 -95 -1 -8 -8 -50 -16 -93 -14 -71 -24
-169 -30 -287 -4 -65 21 -174 54 -239 15 -31 66 -103 112 -161 46 -58 95 -121
108 -140 13 -19 27 -37 30 -40 12 -12 150 -222 150 -230 0 -4 3 -10 8 -12 4
-1 44 -61 89 -133 45 -71 87 -135 93 -142 5 -7 10 -14 10 -17 0 -3 27 -48 60
-100 33 -53 60 -100 60 -106 0 -5 5 -10 10 -10 6 0 10 -4 10 -8 0 -5 49 -94
108 -198 136 -238 355 -680 376 -759 2 -5 6 -17 9 -25 63 -167 98 -366 77
-440 -9 -32 11 -70 36 -70 8 0 22 -4 32 -10 38 -21 182 -63 252 -74 19 -3 46
-8 60 -10 72 -14 232 -21 270 -13 34 7 65 20 80 34 46 41 81 81 97 110 10 18
21 33 25 33 5 0 8 6 8 14 0 8 9 31 21 50 12 20 18 36 14 36 -4 0 -2 7 5 15 11
13 14 12 26 -11 8 -14 14 -31 14 -37 0 -21 91 -156 127 -187 20 -18 53 -39 72
-47 35 -15 152 -20 216 -9 17 2 55 8 85 11 30 4 88 16 130 27 41 10 82 21 90
23 85 19 318 131 422 203 26 17 51 32 56 32 6 0 12 4 14 8 2 5 35 33 73 62 88
68 260 241 344 345 70 87 211 296 211 313 0 6 3 12 8 14 4 2 16 21 27 43 11
22 22 42 25 45 22 19 182 409 205 500 1 3 5 12 8 20 7 17 45 161 53 200 2 14
9 39 14 55 5 17 14 64 21 105 7 41 13 77 14 80 1 3 5 32 9 65 4 33 9 71 12 85
26 168 26 653 -1 842 -18 134 -41 259 -61 348 -3 14 -7 32 -9 40 -2 8 -4 15
-6 15 -1 0 -3 9 -4 20 -6 52 -107 346 -160 470 -48 114 -107 238 -115 245 -3
3 -16 25 -29 50 -79 147 -246 364 -394 511 -196 195 -350 299 -622 419 -24 11
-148 50 -173 55 -9 2 -17 4 -17 5 0 1 -7 3 -15 5 -8 2 -28 6 -45 10 -76 16
-107 19 -215 18 -104 0 -125 -4 -220 -36 -92 -31 -115 -35 -185 -33 -57 2 -99
10 -145 29 -113 44 -138 50 -237 52 -45 1 -84 1 -85 -1z"/>
<path d="M669 4336 c-99 -34 -270 -190 -381 -346 -69 -98 -148 -245 -148 -276
0 -8 -5 -14 -12 -14 -6 0 -9 -3 -5 -6 3 -3 -2 -25 -12 -47 -19 -45 -67 -226
-76 -292 -4 -22 -8 -47 -10 -55 -7 -26 -18 -191 -18 -275 0 -128 14 -290 33
-385 5 -25 12 -61 15 -80 3 -19 10 -53 16 -75 6 -22 12 -47 13 -55 10 -52 75
-250 111 -335 60 -143 90 -203 155 -320 51 -91 160 -264 185 -291 5 -7 19 -24
30 -40 109 -153 327 -378 475 -494 25 -19 47 -37 50 -40 13 -14 114 -83 202
-138 80 -50 221 -123 333 -172 29 -13 167 -61 185 -65 8 -2 33 -8 55 -13 22
-6 51 -13 65 -16 14 -2 32 -7 40 -10 57 -20 484 -30 555 -13 38 9 73 17 105
23 53 11 178 58 255 96 121 60 157 87 184 142 21 42 24 62 23 134 -2 47 -5 88
-7 92 -2 4 -7 22 -10 41 -3 19 -13 59 -22 89 -9 30 -15 56 -15 57 1 2 -7 23
-18 48 -11 25 -19 46 -19 48 1 3 -15 44 -48 127 -53 135 -268 558 -352 690 -8
14 -16 27 -16 30 0 3 -14 28 -31 55 -17 28 -55 91 -84 140 -30 50 -70 115 -89
145 -20 30 -36 57 -36 60 -1 6 -97 153 -104 160 -3 3 -12 17 -20 33 -8 15 -18
27 -23 27 -4 0 -8 5 -8 11 0 10 -215 337 -229 349 -4 3 -32 43 -64 90 -69 101
-122 177 -143 205 -28 38 -76 100 -99 130 -13 17 -43 55 -66 85 -65 83 -113
141 -229 274 -121 140 -361 366 -388 366 -6 0 -12 4 -14 9 -5 14 -102 68 -150
84 -66 23 -101 26 -139 13z"/>
</g>
</svg>
